<?xml version="1.0" encoding="UTF-8"?>
<svg width="340px" height="20px" viewBox="0 0 340 20" version="1.1" xmlns="http://www.w3.org/2000/svg" xmlns:xlink="http://www.w3.org/1999/xlink">
    <!-- Generator: Sketch 49.3 (51167) - http://www.bohemiancoding.com/sketch -->
    <title>Animation-icons</title>
    <desc>Created with Sketch.</desc>
    <defs></defs>
    <g id="Animation-icons" stroke="none" stroke-width="1" fill="none" fill-rule="evenodd">
        <g id="Contact-Support" transform="translate(0.000000, 2.000000)" fill="#FFFFFF">
            <path d="M19.1373521,4.0539309 L14.7122113,4.0539309 L14.7122113,9.96945665 C14.7122113,10.8308021 14.0357676,11.5316326 13.2043944,11.5316326 L6.39052113,11.5316326 L6.39052113,13.5124245 C6.39052113,14.0051326 6.7760493,14.4047785 7.25182394,14.4047785 L13.9461197,14.4047785 L16.7434085,16.825418 C17.1084437,17.1413408 17.3047465,17.0113966 17.1819296,16.535433 L16.6354155,14.4191155 C16.6341479,14.4141906 16.6315775,14.4097034 16.6302746,14.4047785 L19.1373169,14.4047785 C19.6129155,14.4047785 19.9986549,14.0053515 19.9986549,13.5124245 L19.9986549,4.94606609 C19.9984437,4.45335794 19.6129507,4.0539309 19.1373521,4.0539309" id="Fill-1"></path>
            <path d="M0.861302817,10.3508294 L2.17799296,10.3508294 C2.17669014,10.3557543 2.17411972,10.3602414 2.1728169,10.3651663 L1.62630282,12.4814839 C1.54873239,12.7815376 1.59830986,12.944059 1.73665493,12.944059 C1.81788732,12.944059 1.92971831,12.88828 2.06461268,12.7715054 L4.86193662,10.3508659 L5.93295775,10.3508659 L12.7468662,10.3508659 C13.2224648,10.3508659 13.608169,9.9515118 13.608169,9.4585118 L13.608169,3.54316845 L13.608169,0.892372318 C13.608169,0.399627682 13.2226761,1.82403433e-05 12.7468662,1.82403433e-05 L0.861302817,1.82403433e-05 C0.385739437,1.82403433e-05 0,0.399445279 0,0.892372318 L0,9.45847532 C0,9.95147532 0.385528169,10.3508294 0.861302817,10.3508294" id="Fill-4"></path>
        </g>
        <path d="M170,0 C164.477143,0 160,4.14549383 160,9.25925926 C160,12.1731481 161.454161,14.772284 163.726708,16.4695679 L163.726708,20 L167.131615,18.1312963 C168.040311,18.3827778 169.002981,18.5185185 170,18.5185185 C175.522857,18.5185185 180,14.3730247 180,9.25925926 C180,4.14549383 175.522857,0 170,0 Z M170.993789,12.4691358 L168.447205,9.75308642 L163.478261,12.4691358 L168.944099,6.66666667 L171.552795,9.38271605 L176.459627,6.66666667 L170.993789,12.4691358 Z" id="messenger" fill="#FFFFFF" fill-rule="nonzero"></path>
        <path d="M89.9970973,0 L89.9970973,0.000165915897 L90.0029027,0.000165915897 C95.5157285,0.000165915897 100,4.4857022 100,10.000083 C100,15.5142978 95.5157285,20 90.0029027,20 C87.9693474,20 86.0827521,19.3945729 84.5018536,18.3481413 L80.6581686,19.5765826 L81.9041774,15.8612279 C80.7052755,14.2150104 80,12.1868545 80,9.99991704 C80,4.48553628 84.4842715,0 89.9970973,0 Z M87.2053543,5.07951519 C87.0114533,4.6151166 86.8644932,4.59752951 86.570739,4.58558357 C86.4591933,4.57839627 86.3474589,4.57452319 86.2356834,4.57396945 C85.853521,4.57396945 85.4539423,4.68563085 85.2129345,4.93251371 C84.9191803,5.23232374 84.1903514,5.93182516 84.1903514,7.36633401 C84.1903514,8.80084285 85.2364879,10.1882316 85.3774766,10.3823532 C85.5244367,10.576143 87.4170032,13.5626291 90.3555404,14.7797881 C92.6534911,15.7321454 93.3353791,15.6438781 93.8583644,15.5322167 C94.6223575,15.3676281 95.5804175,14.8030164 95.8214253,14.1212679 C96.0624331,13.4391877 96.0624331,12.8571547 95.9917729,12.7337133 C95.9212785,12.6102719 95.7272117,12.5399235 95.4334575,12.3927561 C95.1397033,12.2457546 93.7114043,11.5402802 93.4410377,11.4462059 C93.1764764,11.3463245 92.9238578,11.3816646 92.7241514,11.6638876 C92.442008,12.0577719 92.1658359,12.4576292 91.9424102,12.6985391 C91.7660914,12.8866877 91.4779767,12.9102478 91.2371348,12.8102005 C90.9138559,12.675145 90.008874,12.357416 88.8920773,11.3639116 C88.0280651,10.593896 87.4403908,9.63573165 87.2700432,9.34770165 C87.0995298,9.0538646 87.2524611,8.88313714 87.3874785,8.72452154 C87.5344386,8.54217997 87.6754273,8.41293149 87.8223874,8.24236994 C87.9693474,8.07197432 88.0516185,7.98370706 88.1456663,7.7837784 C88.2456853,7.58982272 88.1750251,7.38989406 88.1045307,7.24289258 C88.0340363,7.09589109 87.4463621,5.66138225 87.2053543,5.07951519 Z" id="whatsapp" fill="#FFFFFF" fill-rule="nonzero"></path>
        <g id="support" transform="translate(240.000000, 3.000000)" fill="#FFFFFF">
            <path d="M19.8162668,1.00219029 L13.5024086,7.00030334 L19.8162668,12.9984164 C19.930404,12.7703161 19.9996508,12.5181537 19.9996508,12.2488798 L19.9996508,1.75172691 C19.9996508,1.48241481 19.930404,1.23029061 19.8162668,1.00219029" id="Fill-1"></path>
            <path d="M18.2465176,0 L1.75348241,0 C1.48275257,0 1.22930111,0.0672863472 1,0.178192307 L8.75653288,7.98000543 C9.44236165,8.67333152 10.5576384,8.67333152 11.2434671,7.98000543 L19,0.178192307 C18.7706989,0.0672863472 18.5172474,0 18.2465176,0" id="Fill-4"></path>
            <path d="M0.183382936,1.00219029 C0.0692457341,1.23029061 -9.9923136e-07,1.48241481 -9.9923136e-07,1.75172691 L-9.9923136e-07,12.2488798 C-9.9923136e-07,12.5181919 0.0692457341,12.7703543 0.183382936,12.9984164 L6.49724612,7.00030334 L0.183382936,1.00219029 Z" id="Fill-6"></path>
            <path d="M12.9304864,8.00320232 L12.0718831,8.83303063 C10.929356,9.93726729 9.07026663,9.93726729 7.92774436,8.83303063 L7.06917941,8.00320232 L1.00159018,13.8296756 C1.23084652,13.9356849 1.48424849,14.0000005 1.75492547,14.0000005 L18.2447404,14.0000005 C18.5154173,14.0000005 18.7688193,13.9356849 18.9980756,13.8296756 L12.9304864,8.00320232 Z" id="Fill-9"></path>
        </g>
        <g id="Call-back" transform="translate(320.000000, 0.000000)" fill="#FFFFFF">
            <path d="M15.2006516,13.2325549 C14.5474362,12.5876819 13.7319617,12.5876819 13.0829111,13.2325549 C12.5877994,13.7234931 12.0926925,14.2144266 11.605901,14.7136849 C11.4727628,14.8509795 11.3604252,14.8801044 11.1981613,14.7885746 C10.8777938,14.6138352 10.5366304,14.4723758 10.2287432,14.2809963 C8.79333906,13.3781695 7.59092553,12.2173982 6.52581511,10.9110076 C5.99742242,10.2619699 5.5272714,9.56717211 5.19858841,8.78499982 C5.13201691,8.6269004 5.14449727,8.52289065 5.27348015,8.39391607 C5.76858709,7.9154626 6.25121847,7.42452431 6.73800517,6.93358602 C7.41618134,6.25126826 7.41618134,5.45245594 6.73384505,4.76597818 C6.3469108,4.37488963 5.95997656,3.9921259 5.57304231,3.60104215 C5.1736229,3.20163359 4.77836842,2.79806982 4.37478889,2.40282127 C3.72157824,1.76626838 2.90609896,1.76626838 2.25704842,2.40698607 C1.75777657,2.89791956 1.2793101,3.40133787 0.771718009,3.88395614 C0.301566986,4.32912477 0.064416213,4.87414793 0.0144899871,5.51070083 C-0.06456187,6.54666228 0.189234177,7.52437405 0.547042795,8.47712578 C1.2793101,10.4491941 2.39434674,12.2007534 3.74653895,13.8066981 C5.57304231,15.9784707 7.75319416,17.6967499 10.303635,18.9365709 C11.4519574,19.494074 12.6418906,19.9226026 13.9358315,19.9933323 C14.8261977,20.0432572 15.600071,19.8185929 16.2200007,19.1237903 C16.6443808,18.6494968 17.1228473,18.2168082 17.5721929,17.7633148 C18.2378839,17.0893171 18.2420489,16.2738647 17.5805132,15.608187 C16.7899994,14.8135395 15.9953255,14.0230472 15.2006516,13.2325549" id="Fill-1"></path>
            <path d="M14.4574459,9.92592593 L16,9.66338609 C15.7575421,8.2506635 15.0886821,6.97129905 14.0728523,5.95447444 C12.9984945,4.88347608 11.6398749,4.20836609 10.1433045,4 L9.92592593,5.54607593 C11.0838865,5.70860196 12.1373401,6.2295148 12.9692352,7.05881233 C13.7551419,7.8422698 14.2693266,8.83408856 14.4574459,9.92592593" id="Fill-3"></path>
            <path d="M16.8034496,3.23064784 C15.0261941,1.46186062 12.7775075,0.344948082 10.2951889,0.000326095364 L10.0782475,1.5407508 C12.2226372,1.83970028 14.1667715,2.80713568 15.7020519,4.33094915 C17.1580693,5.78002884 18.1134457,7.61109501 18.4597224,9.624856 L19.9991744,9.3632758 C19.594492,7.02980249 18.4889228,4.91224167 16.8034496,3.23064784" id="Fill-5"></path>
        </g>
    </g>
</svg>